<?xml version="1.0" encoding="utf-8"?>
<!-- Generator: Adobe Illustrator 21.0.0, SVG Export Plug-In . SVG Version: 6.00 Build 0)  -->
<svg version="1.1" id="Layer_1" xmlns="http://www.w3.org/2000/svg" xmlns:xlink="http://www.w3.org/1999/xlink" x="0px" y="0px"
	 viewBox="0 0 512 512" style="enable-background:new 0 0 512 512;" xml:space="preserve">
<style type="text/css">
	.st0{fill:#8089FF;}
</style>
<g id="Quotemarks-left">
	<path class="st0" d="M405,209.8c-1-11.1-0.2-41.5,28.8-83.6c2.2-3.2,1.8-7.5-0.9-10.2c-11.8-11.8-19.2-19.3-24.3-24.5
		c-6.8-6.9-9.8-10-14.4-14.1c-3-2.7-7.6-2.8-10.6-0.1c-50.6,44-106.8,135-98.7,246.5c4.8,65.5,52.5,113,113.5,113
		c62.6,0,113.5-50.9,113.5-113.5C512,262.8,464.6,213.2,405,209.8z"/>
	<path class="st0" d="M120.9,209.8c-1-11.1-0.3-41.4,28.8-83.6c2.2-3.2,1.8-7.5-0.9-10.2c-11.8-11.8-19.1-19.3-24.3-24.5
		c-6.8-6.9-9.9-10.1-14.4-14.2c-3-2.7-7.6-2.7-10.6-0.1c-50.6,44-106.8,135-98.7,246.5v0c4.8,65.4,52.5,113,113.5,113
		c62.6,0,113.5-50.9,113.5-113.5C227.9,262.8,180.5,213.2,120.9,209.8z"/>
</g>
</svg>
