<?xml version="1.0" encoding="utf-8"?>
<!-- Generator: Adobe Illustrator 21.0.0, SVG Export Plug-In . SVG Version: 6.00 Build 0)  -->
<svg version="1.1" id="Layer_1" xmlns="http://www.w3.org/2000/svg" xmlns:xlink="http://www.w3.org/1999/xlink" x="0px" y="0px"
	 viewBox="0 0 289.8 289.8" style="enable-background:new 0 0 289.8 289.8;" xml:space="preserve">
<style type="text/css">
	.st0{fill:#FFFFFF;}
</style>
<g>
	<path class="st0" d="M13.4,13.7c-0.7,2.4-1.2,5.1-1.2,8v246.4c0,3,0.5,5.5,1.1,7.9l138.3-131C151.7,145,13.4,13.7,13.4,13.7z"/>
	<path class="st0" d="M205.6,93.9L44.2,4.1c-6.4-3.9-12.8-4.9-18.1-3.5l138.9,131.9L205.6,93.9z"/>
	<path class="st0" d="M265.1,127l-43.1-24l-44.1,41.8l45,42.7l41.9-23C285.3,152.9,277.8,134.1,265.1,127z"/>
	<path class="st0" d="M25.6,289.1c5.4,1.5,11.9,0.6,18.5-3.4l161.9-88.9l-41.4-39.4C164.7,157.4,25.6,289.1,25.6,289.1z"/>
</g>
</svg>
